<?xml version="1.0" standalone="no"?>
<!DOCTYPE svg PUBLIC "-//W3C//DTD SVG 20010904//EN"
 "http://www.w3.org/TR/2001/REC-SVG-20010904/DTD/svg10.dtd">
<svg version="1.0" xmlns="http://www.w3.org/2000/svg"
 width="260.000000pt" height="260.000000pt" viewBox="0 0 260.000000 260.000000"
 preserveAspectRatio="xMidYMid meet">
<metadata>
Created by potrace 1.11, written by Peter Selinger 2001-2013
</metadata>
<g transform="translate(0.000000,260.000000) scale(0.100000,-0.100000)"
fill="#000000" stroke="none">
<path d="M489 2553 c-2 -82 -10 -96 -64 -116 -56 -20 -100 -64 -109 -108 -5
-25 -16 -34 -60 -54 -82 -36 -84 -42 -88 -251 -4 -208 -12 -234 -72 -234 -18
0 -48 -3 -65 -6 l-31 -6 0 -564 0 -564 49 0 c68 0 99 -14 107 -47 13 -57 43
-90 98 -113 50 -20 56 -26 73 -72 28 -78 48 -88 184 -93 120 -5 139 -13 139
-57 0 -34 29 -75 62 -89 18 -8 58 -13 88 -12 118 5 170 -32 170 -118 l0 -49
324 0 323 0 7 49 c12 89 62 123 176 118 30 -1 70 4 88 12 33 14 62 55 62 89 0
44 19 52 139 57 136 5 156 15 184 93 17 46 23 52 73 72 55 23 85 56 98 113 8
33 39 47 107 47 l49 0 0 564 0 564 -31 6 c-17 3 -47 6 -65 6 -60 0 -68 26 -72
234 -4 209 -6 215 -88 251 -44 20 -55 29 -60 54 -9 44 -53 88 -109 108 -54 20
-62 34 -64 116 l-1 47 -810 0 -810 0 -1 -47z m1577 -140 c12 -7 25 -25 29 -40
11 -45 46 -84 92 -105 75 -33 80 -51 82 -330 1 -78 4 -90 27 -117 14 -17 43
-36 65 -43 22 -6 45 -20 50 -30 6 -12 10 -209 10 -529 1 -567 4 -536 -67 -559
-40 -14 -90 -68 -99 -108 -9 -41 -40 -52 -146 -52 -90 0 -91 0 -124 -33 -20
-20 -36 -48 -40 -70 -9 -48 -34 -62 -81 -47 -61 21 -66 37 -62 228 3 192 5
197 84 231 80 36 79 30 79 413 0 335 0 338 22 360 12 12 42 31 65 42 71 34 78
60 71 250 -4 107 -10 170 -20 188 -7 16 -36 41 -64 57 -37 21 -59 43 -80 80
-46 81 -59 85 -235 89 -135 3 -157 2 -197 -16 -37 -16 -51 -30 -71 -69 -13
-27 -31 -55 -40 -62 -23 -19 -154 -25 -201 -9 -33 11 -45 23 -69 67 -44 82
-78 94 -270 89 -176 -4 -189 -8 -235 -89 -21 -37 -43 -59 -80 -80 -28 -16 -57
-41 -64 -57 -10 -18 -16 -81 -20 -188 -7 -190 0 -216 71 -250 23 -11 53 -30
65 -42 22 -22 22 -25 22 -360 0 -383 -1 -377 79 -413 79 -34 81 -39 84 -231 4
-191 -1 -207 -62 -228 -47 -15 -72 -1 -81 47 -4 22 -20 50 -40 70 -33 33 -34
33 -124 33 -106 0 -137 11 -146 52 -9 40 -59 94 -99 108 -71 23 -68 -8 -67
559 0 320 4 517 10 529 5 10 28 24 50 30 22 7 51 26 65 43 23 27 26 39 27 117
2 279 7 297 82 330 46 21 81 60 92 105 9 33 18 39 70 48 22 3 362 5 755 5 544
-1 720 -4 736 -13z m-1007 -366 c38 -19 75 -100 75 -163 0 -59 -21 -98 -67
-124 -23 -13 -30 -12 -61 3 -36 17 -41 24 -90 140 -20 46 -46 49 -88 7 -30
-30 -30 -32 -23 -105 8 -88 -2 -115 -45 -115 -52 0 -60 27 -57 189 3 188 -4
181 191 181 92 0 150 -5 165 -13z m805 2 c30 -14 34 -39 35 -199 0 -132 -10
-160 -59 -160 -17 0 -47 11 -68 24 -20 14 -56 29 -79 35 -55 15 -97 59 -112
117 -7 26 -21 64 -31 85 -25 47 -25 85 -2 98 24 14 285 14 316 0z m-834 -444
c36 -18 45 -36 54 -98 11 -70 3 -82 -64 -106 -55 -20 -61 -21 -84 -6 -27 18
-66 100 -66 140 0 35 17 64 43 75 34 14 85 11 117 -5z m645 1 c36 -15 55 -42
55 -76 0 -36 -41 -118 -66 -135 -23 -15 -29 -14 -84 6 -32 12 -61 28 -65 37
-3 9 -3 40 1 70 12 99 70 135 159 98z m-157 -233 c9 -21 22 -41 27 -45 18 -13
63 -9 80 8 14 15 18 14 44 -14 50 -51 50 -157 1 -210 -24 -25 -33 -27 -52 -9
-36 33 -88 11 -88 -38 0 -34 20 -40 76 -25 42 12 46 11 71 -11 35 -33 56 -84
48 -120 -5 -22 -18 -35 -55 -54 -51 -26 -80 -56 -99 -103 -7 -16 -22 -34 -34
-39 -25 -11 -454 -10 -479 1 -9 4 -22 21 -28 37 -20 48 -49 78 -100 104 -37
19 -50 32 -55 54 -8 36 13 87 48 120 25 22 29 23 71 11 56 -15 76 -9 76 25 0
49 -52 71 -88 38 -19 -18 -28 -16 -52 9 -49 53 -49 159 1 210 26 28 30 29 44
14 17 -17 62 -21 80 -8 6 4 18 24 27 45 l18 37 200 0 200 0 18 -37z m23 -954
c14 -22 12 -26 -36 -59 -25 -17 -63 -55 -85 -85 -44 -60 -75 -72 -153 -62 -32
4 -48 13 -67 38 -33 44 -89 99 -123 124 -30 21 -30 51 1 57 8 2 114 3 235 2
176 -1 221 -4 228 -15z"/>
</g>
</svg>
